<svg width="83" height="57" viewBox="0 0 83 57" fill="none" xmlns="http://www.w3.org/2000/svg">
<path d="M6.28854 1.448L12.0285 1.325C12.2472 1.325 12.3565 1.55733 12.3565 2.022C12.3565 2.48667 12.2472 2.719 12.0285 2.719H10.2655C9.5822 2.719 9.1312 2.85567 8.91254 3.129C8.69387 3.375 8.58454 3.867 8.58454 4.605V24.039C8.58454 26.4443 8.87154 27.647 9.44554 27.647H11.8235C12.0422 27.647 12.1515 27.8793 12.1515 28.344C12.1515 28.7813 12.0422 29 11.8235 29L6.65754 28.959L0.917535 29.082C0.698869 29.082 0.589535 28.8497 0.589535 28.385C0.589535 27.9203 0.698869 27.688 0.917535 27.688H2.68054C3.36387 27.688 3.81487 27.565 4.03354 27.319C4.2522 27.0457 4.36154 26.54 4.36154 25.802V6.368C4.36154 3.96266 4.07454 2.76 3.50054 2.76H1.12254C0.903869 2.76 0.794535 2.54133 0.794535 2.104C0.794535 1.63933 0.903869 1.407 1.12254 1.407L6.28854 1.448ZM46.9519 28.959L41.5809 29.082C41.3622 29.082 41.2529 28.8497 41.2529 28.385C41.2529 27.9203 41.3622 27.688 41.5809 27.688H43.1389C43.6582 27.688 44.0272 27.5787 44.2459 27.36C44.4646 27.1413 44.5602 26.7997 44.5329 26.335C44.5056 25.843 44.3826 24.1347 44.1639 21.21C43.5079 13.0647 43.1799 8.40433 43.1799 7.229H43.0159C42.5512 8.26767 41.0342 11.739 38.4649 17.643C35.8956 23.5197 34.2966 27.114 33.6679 28.426C33.5312 28.6447 33.2852 28.754 32.9299 28.754C32.5746 28.754 32.3422 28.6447 32.2329 28.426C31.5496 27.36 30.1692 24.2577 28.0919 19.119C26.0146 13.953 24.4429 9.86667 23.3769 6.86H23.2129C22.5296 16.4813 22.1879 22.358 22.1879 24.49C22.1879 26.5947 22.5296 27.647 23.2129 27.647H25.0169C25.3722 27.647 25.5499 27.8793 25.5499 28.344C25.5499 28.7813 25.3722 29 25.0169 29L20.7119 28.959L15.5459 29.082C15.2999 29.082 15.1769 28.8497 15.1769 28.385C15.1769 27.9203 15.2999 27.688 15.5459 27.688H16.8989C17.6369 27.688 18.1426 27.6333 18.4159 27.524C18.7166 27.3873 18.9079 27.073 18.9899 26.581C19.2632 24.9957 19.6869 21.5107 20.2609 16.126C20.8622 10.4133 21.1629 7.01033 21.1629 5.917C21.1629 4.79633 21.0809 3.99 20.9169 3.498C20.7802 2.97867 20.5069 2.719 20.0969 2.719H18.0469C17.8282 2.719 17.7189 2.50033 17.7189 2.063C17.7189 1.62567 17.8282 1.407 18.0469 1.407L25.7959 1.489C26.1512 2.69167 27.3949 6.23133 29.5269 12.108C31.6862 17.9573 33.1076 21.866 33.7909 23.834H33.9549C34.7202 21.9207 35.8136 19.2283 37.2349 15.757C39.9956 8.97833 41.8132 4.22233 42.6879 1.489L49.5759 1.366C49.8219 1.366 49.9449 1.59833 49.9449 2.063C49.9449 2.50033 49.8219 2.719 49.5759 2.719H48.0179C47.4986 2.719 47.1569 2.86933 46.9929 3.17C46.8289 3.44333 46.7469 3.75767 46.7469 4.113C46.7469 4.441 46.7469 4.78267 46.7469 5.138C46.7742 5.49333 47.0339 8.26767 47.5259 13.461C48.0452 18.627 48.4689 22.563 48.7969 25.269C48.9609 26.8543 49.2752 27.647 49.7399 27.647H52.3229C52.6236 27.647 52.7739 27.8793 52.7739 28.344C52.7739 28.7813 52.6236 29 52.3229 29L46.9519 28.959ZM80.1164 23.301C80.1711 23.0003 80.4034 22.85 80.8134 22.85C81.2507 22.85 81.4694 22.973 81.4694 23.219L81.1414 28.918C81.1414 29.1367 80.9227 29.246 80.4854 29.246C80.0754 29.246 79.8704 29.1367 79.8704 28.918V27.934C77.1917 29 74.5677 29.533 71.9984 29.533C67.2971 29.533 63.3884 28.3577 60.2724 26.007C57.1564 23.629 55.5984 20.349 55.5984 16.167C55.5984 13.0237 56.4184 10.2767 58.0584 7.926C59.6984 5.548 61.7757 3.79867 64.2904 2.678C66.8051 1.53 69.3744 0.955999 71.9984 0.955999C74.6497 0.955999 77.0141 1.489 79.0914 2.555V1.612C79.0914 1.366 79.2827 1.243 79.6654 1.243C80.0754 1.243 80.2804 1.366 80.2804 1.612C80.2804 3.826 80.4171 5.84867 80.6904 7.68C80.7451 7.95333 80.5401 8.09 80.0754 8.09C79.6107 8.09 79.3647 7.95333 79.3374 7.68L79.0094 5.753C76.8774 3.785 74.3217 2.801 71.3424 2.801C68.3904 2.801 65.8757 3.89433 63.7984 6.081C61.7211 8.24033 60.6824 11.3153 60.6824 15.306C60.6824 19.2693 61.7757 22.3307 63.9624 24.49C66.1764 26.622 68.9371 27.688 72.2444 27.688C74.9231 27.688 77.4651 26.868 79.8704 25.228L80.1164 23.301Z" fill="#EB5757"/>
<path d="M0.407094 33.848L3.43109 33.896H6.19109C8.30309 33.896 9.88709 34.304 10.9431 35.12C12.0151 35.936 12.5511 36.936 12.5511 38.12C12.5511 39.288 12.0631 40.336 11.0871 41.264C10.1111 42.176 8.86309 42.632 7.34309 42.632C6.51109 42.632 5.65509 42.44 4.77509 42.056V47.096C4.77509 48.504 4.94309 49.208 5.27909 49.208H6.67109C6.83109 49.208 6.91109 49.344 6.91109 49.616C6.91109 49.872 6.83109 50 6.67109 50H5.63909L4.60709 49.976H3.64709L0.287094 50.048C0.159094 50.048 0.0950938 49.912 0.0950938 49.64C0.0950938 49.368 0.159094 49.232 0.287094 49.232H1.31909C1.71909 49.232 1.98309 49.16 2.11109 49.016C2.23909 48.856 2.30309 48.56 2.30309 48.128V36.752C2.30309 35.344 2.13509 34.64 1.79909 34.64H0.407094C0.279094 34.64 0.215094 34.512 0.215094 34.256C0.215094 33.984 0.279094 33.848 0.407094 33.848ZM6.04709 41.432C7.27909 41.432 8.23909 41.128 8.92709 40.52C9.61509 39.912 9.95909 39.16 9.95909 38.264C9.95909 37.352 9.58309 36.56 8.83109 35.888C8.09509 35.2 7.03109 34.856 5.63909 34.856C5.33509 34.856 5.11109 34.936 4.96709 35.096C4.83909 35.256 4.77509 35.544 4.77509 35.96V41.288C5.20709 41.384 5.63109 41.432 6.04709 41.432ZM16.8874 50L14.3194 50.048C14.2074 50.048 14.1514 49.928 14.1514 49.688C14.1514 49.448 14.1914 49.328 14.2714 49.328H15.4474C15.6394 49.328 15.7354 49.192 15.7354 48.92V41.048C15.7354 39.784 15.5594 39.152 15.2074 39.152H14.3674C14.1914 39.152 14.1034 39.032 14.1034 38.792C14.1034 38.536 14.1754 38.408 14.3194 38.408C15.7434 38.44 17.1994 38.456 18.6874 38.456C20.1754 38.456 21.3274 38.776 22.1434 39.416C22.9754 40.04 23.3914 40.816 23.3914 41.744C23.3914 42.656 23.0634 43.392 22.4074 43.952C21.7514 44.512 20.9594 44.832 20.0314 44.912C20.4954 45.232 21.0954 45.872 21.8314 46.832C22.1034 47.2 22.5274 47.624 23.1034 48.104C23.6794 48.568 24.3274 48.984 25.0474 49.352C24.7274 49.992 24.2394 50.312 23.5834 50.312C22.9274 50.312 22.3514 50.072 21.8554 49.592C21.3594 49.112 20.9754 48.584 20.7034 48.008C20.4314 47.416 20.1274 46.808 19.7914 46.184C19.4714 45.56 19.1674 45.152 18.8794 44.96L17.7754 44.888V47.672C17.7754 48.728 17.9354 49.256 18.2554 49.256H19.2634C19.3914 49.256 19.4554 49.384 19.4554 49.64C19.4554 49.88 19.4154 50 19.3354 50H16.8874ZM18.2554 39.176C17.9354 39.176 17.7754 39.44 17.7754 39.968V43.952C17.9994 44 18.2234 44.024 18.4474 44.024C19.1674 44.024 19.7914 43.824 20.3194 43.424C20.8474 43.024 21.1114 42.48 21.1114 41.792C21.1114 41.104 20.8714 40.496 20.3914 39.968C19.9274 39.44 19.2154 39.176 18.2554 39.176ZM28.0234 39.944C29.3194 38.744 30.8234 38.144 32.5354 38.144C34.2474 38.144 35.7434 38.744 37.0234 39.944C38.3194 41.144 38.9674 42.568 38.9674 44.216C38.9674 45.848 38.3194 47.272 37.0234 48.488C35.7434 49.704 34.2474 50.312 32.5354 50.312C30.8234 50.312 29.3194 49.704 28.0234 48.488C26.7434 47.272 26.1034 45.848 26.1034 44.216C26.1034 42.568 26.7434 41.144 28.0234 39.944ZM35.4394 40.52C34.6874 39.512 33.7194 39.008 32.5354 39.008C31.3514 39.008 30.3834 39.512 29.6314 40.52C28.8794 41.512 28.5034 42.744 28.5034 44.216C28.5034 45.672 28.8794 46.912 29.6314 47.936C30.3834 48.944 31.3514 49.448 32.5354 49.448C33.7194 49.448 34.6874 48.944 35.4394 47.936C36.1914 46.912 36.5674 45.672 36.5674 44.216C36.5674 42.744 36.1914 41.512 35.4394 40.52ZM41.0627 38.408L42.9587 38.456C43.1347 38.456 43.2867 38.456 43.4147 38.456L45.9107 38.408C46.0227 38.408 46.0787 38.528 46.0787 38.768C46.0787 38.992 46.0147 39.104 45.8867 39.104H44.7827C44.5747 39.104 44.4707 39.232 44.4707 39.488V48.032C44.4707 50.272 44.2627 51.896 43.8467 52.904C43.4307 53.928 42.7987 54.768 41.9507 55.424C41.1027 56.096 40.1187 56.432 38.9987 56.432C38.7587 56.432 38.5187 56.376 38.2787 56.264C38.0227 56.152 37.8947 55.96 37.8947 55.688C37.8947 55.128 38.2067 54.752 38.8307 54.56C39.4547 54.912 40.1187 55.088 40.8227 55.088C41.2547 55.088 41.5827 54.872 41.8067 54.44C42.2227 53.56 42.4307 51.48 42.4307 48.2V41.072C42.4307 39.792 42.2707 39.152 41.9507 39.152H41.0867C40.8947 39.152 40.7987 39.032 40.7987 38.792C40.7987 38.536 40.8867 38.408 41.0627 38.408ZM48.0705 38.408L50.5185 38.456H55.4865V38.072C55.4865 37.976 55.5905 37.928 55.7985 37.928C56.0225 37.928 56.1345 37.976 56.1345 38.072C56.1345 39.336 56.1905 40.24 56.3025 40.784C56.3345 40.88 56.2465 40.928 56.0385 40.928C55.7665 40.928 55.6305 40.88 55.6305 40.784C55.4065 40.048 55.1905 39.632 54.9825 39.536C54.3105 39.296 53.3345 39.176 52.0545 39.176C51.8305 39.192 51.6785 39.256 51.5985 39.368C51.5185 39.48 51.4785 39.68 51.4785 39.968V43.904C53.4145 43.84 54.4785 43.752 54.6705 43.64L54.8385 42.632C54.8705 42.552 54.9825 42.512 55.1745 42.512C55.3825 42.512 55.4865 42.568 55.4865 42.68C55.4225 43.144 55.3905 43.664 55.3905 44.24C55.3905 44.8 55.4225 45.312 55.4865 45.776C55.4865 45.872 55.3745 45.92 55.1505 45.92C54.9425 45.92 54.8385 45.888 54.8385 45.824L54.6465 44.792C54.4545 44.68 53.3985 44.592 51.4785 44.528V47.432C51.4785 48.632 51.6385 49.232 51.9585 49.232H52.7265C54.4865 49.2 55.7025 48.952 56.3745 48.488L56.4945 47.552C56.5265 47.456 56.6065 47.408 56.7345 47.408C56.8785 47.408 56.9745 47.408 57.0225 47.408C57.1185 47.44 57.1665 47.488 57.1665 47.552C57.0705 48.224 57.0225 49.168 57.0225 50.384C57.0225 50.464 56.9105 50.504 56.6865 50.504C56.4785 50.504 56.3745 50.464 56.3745 50.384V50H52.1025L48.0225 50.048C47.9105 50.048 47.8545 49.928 47.8545 49.688C47.8545 49.448 47.9025 49.328 47.9985 49.328H49.0785C49.2545 49.328 49.3585 49.296 49.3905 49.232C49.4225 49.152 49.4385 48.952 49.4385 48.632V41.072C49.4385 39.792 49.2785 39.152 48.9585 39.152H48.0945C47.9025 39.152 47.8065 39.032 47.8065 38.792C47.8065 38.536 47.8945 38.408 48.0705 38.408ZM65.8257 50.312C63.8737 50.312 62.2577 49.792 60.9777 48.752C59.6977 47.712 59.0577 46.288 59.0577 44.48C59.0577 42.656 59.7457 41.144 61.1217 39.944C62.4977 38.744 64.1377 38.144 66.0417 38.144C66.9697 38.144 67.8817 38.376 68.7777 38.84V38.432C68.7777 38.32 68.8737 38.264 69.0657 38.264C69.2737 38.264 69.3777 38.32 69.3777 38.432C69.3777 39.44 69.4577 40.488 69.6177 41.576C69.6337 41.624 69.6017 41.672 69.5217 41.72C69.4577 41.752 69.3537 41.768 69.2097 41.768C69.0657 41.768 68.9777 41.704 68.9457 41.576L68.7537 40.304C67.8577 39.456 66.8257 39.032 65.6577 39.032C64.5057 39.032 63.5137 39.528 62.6817 40.52C61.8657 41.512 61.4577 42.752 61.4577 44.24C61.4577 45.728 61.8897 46.968 62.7537 47.96C63.6177 48.936 64.6337 49.424 65.8017 49.424C66.9697 49.424 68.0737 49.08 69.1137 48.392L69.2337 47.024C69.2337 46.896 69.3457 46.832 69.5697 46.832C69.7937 46.832 69.9057 46.888 69.9057 47L69.7617 50.048C69.7617 50.144 69.6497 50.192 69.4257 50.192C69.2177 50.192 69.1137 50.144 69.1137 50.048V49.64C68.0097 50.088 66.9137 50.312 65.8257 50.312ZM82.635 40.976C82.635 41.072 82.523 41.12 82.299 41.12C82.091 41.12 81.987 41.064 81.987 40.952C81.827 40.168 81.587 39.736 81.267 39.656C80.691 39.528 79.819 39.448 78.651 39.416H78.195C78.035 39.432 77.955 39.56 77.955 39.8V47.432C77.955 48.648 78.115 49.256 78.435 49.256H79.635C79.763 49.256 79.827 49.384 79.827 49.64C79.827 49.88 79.779 50 79.683 50L76.899 49.976L74.499 50.048C74.387 50.048 74.331 49.928 74.331 49.688C74.331 49.448 74.379 49.328 74.475 49.328H75.555C75.731 49.328 75.835 49.296 75.867 49.232C75.899 49.152 75.915 48.952 75.915 48.632V41.336C75.915 40.136 75.771 39.496 75.483 39.416C74.187 39.416 73.219 39.496 72.579 39.656C72.259 39.736 72.019 40.168 71.859 40.952C71.859 41.064 71.747 41.12 71.523 41.12C71.315 41.12 71.211 41.072 71.211 40.976L71.331 38.096C71.331 38 71.435 37.952 71.643 37.952C71.867 37.952 71.979 38 71.979 38.096V38.408C71.979 38.408 73.027 38.424 75.123 38.456H76.899C79.331 38.456 80.963 38.44 81.795 38.408H81.867V38.096C81.867 38 81.971 37.952 82.179 37.952C82.403 37.952 82.515 38 82.515 38.096L82.635 40.976Z" fill="#333333"/>
</svg>
